Coordinates
version=1
nRows=8
nColumns=36
inDegrees=yes

Units are S.I. units (second, meters, Newtons, ...)
If the header above contains a line with 'inDegrees', this indicates whether rotational values are in degrees (yes) or radians (no).

endheader
time	pelvis_tilt	pelvis_list	pelvis_rotation	pelvis_tx	pelvis_ty	pelvis_tz	hip_flexion_r	hip_adduction_r	hip_rotation_r	knee_angle_r	knee_angle_r_beta	ankle_angle_r	subtalar_angle_r	mtp_angle_r	hip_flexion_l	hip_adduction_l	hip_rotation_l	knee_angle_l	knee_angle_l_beta	ankle_angle_l	subtalar_angle_l	mtp_angle_l	lumbar_extension	lumbar_bending	lumbar_rotation	arm_flex_r	arm_add_r	arm_rot_r	elbow_flex_r	pro_sup_r	arm_flex_l	arm_add_l	arm_rot_l	elbow_flex_l	pro_sup_l
      3.21666670	    -14.38495481	     -1.49905060	     -2.62116831	     -0.29375308	      1.18268588	     -0.05249174	     12.74101270	      3.51178842	     -2.50239111	      7.84482032	      0.13691794	      4.59332032	    -20.83016085	     -7.49999987	     13.15916209	     -4.17974074	      5.15484719	      5.31453548	      0.09275614	     10.94609130	     -6.94811956	     -7.49999987	     -8.32878120	      4.74988246	     -1.68749149	     -9.63613743	     -8.24568581	     -4.80969602	     30.17575141	     75.74102395	     -1.04454509	    -10.75228876	     16.60275428	     28.23582025	     80.84605646
      3.23333330	    -15.18640407	     -1.14974567	     -2.70078639	     -0.29315303	      1.18249885	     -0.05246089	     13.89677006	      2.99795645	     -2.28569475	      8.60099845	      0.15011574	      5.11416189	    -20.91691676	     -7.49999987	     14.84864335	     -3.71251366	      4.70550349	      6.96353277	      0.12153657	     11.62328502	     -7.21748518	     -7.49999987	     -8.05413449	      4.74272647	     -1.89202410	     -9.39457406	     -8.53932962	     -4.69536217	     30.57480571	     75.58252584	     -1.15434818	    -10.43079501	     16.76094175	     27.75623880	     80.59903969
      3.25000000	    -16.04322294	     -0.79980515	     -2.74686171	     -0.29249563	      1.18500003	     -0.05210747	     15.16897514	      2.54453415	     -1.94672785	      9.45866019	      0.16508476	      5.42559933	    -21.02917997	     -7.49999987	     16.52177319	     -3.28042956	      4.54800546	      8.69484683	      0.15175371	     12.20903595	     -7.75369252	     -7.49999987	     -7.81925215	      4.63404789	     -1.86589834	     -9.02277278	     -8.88511768	     -4.43360768	     31.54116278	     75.95711703	     -1.09078364	    -10.26039401	     17.07583902	     27.38416021	     80.94816255
      3.26666670	    -17.16400501	     -0.45346796	     -2.67554890	     -0.29130173	      1.17115347	     -0.05193526	     16.98462616	      2.11105716	     -1.72018525	     10.79989582	      0.18849374	      5.89766168	    -21.43434495	     -7.49999987	     18.64121204	     -2.83865945	      4.39857751	     10.68492129	      0.18648706	     13.08886689	     -8.21612566	     -7.49999987	     -7.29429921	      4.61037361	     -1.68700645	     -8.98908173	     -9.36866481	     -3.62742879	     32.52596302	     75.45338449	     -0.80547474	    -10.23261152	     18.50928683	     26.96043965	     80.12161479
      3.28333330	    -18.04805576	     -0.09389539	     -2.62951322	     -0.28386576	      1.16846979	     -0.04864261	     18.49710177	      1.68901020	     -1.53989855	     12.14687516	      0.21200297	      6.52132835	    -21.57929704	     -7.49999987	     20.33929196	     -2.43922212	      4.27636855	     12.35351719	      0.21560955	     13.73367720	     -8.51024081	     -7.49999987	     -6.90482983	      4.47449369	     -1.64655481	     -9.31982109	     -9.45088620	     -3.80102312	     33.57490869	     75.74848011	     -0.98324865	    -10.28455082	     18.58269598	     27.46284798	     80.43018739
      3.30000000	    -18.40138656	      0.18064450	     -2.66444590	     -0.28402761	      1.17504596	     -0.05418032	     19.57270467	      1.22175352	     -1.45783283	     13.71586859	      0.23938707	      7.09759157	    -21.74822244	     -7.49999987	     21.30787069	     -2.08457224	      4.19209279	     13.84702327	      0.24167615	     14.30145844	     -8.93938213	     -7.49999987	     -7.30108936	      4.46411727	     -1.48132330	     -8.99509583	     -9.69731597	     -3.91364206	     34.13093702	     75.84027067	     -0.85101799	    -10.04777272	     18.58069416	     27.59182488	     80.50376409
      3.31666670	    -19.62541361	      0.45095794	     -2.54940156	     -0.27652844	      1.16789711	     -0.05087251	     21.56810146	      0.84745100	     -1.38134436	     15.44601315	      0.26958379	      7.83957513	    -21.89310070	     -7.49999987	     23.44963080	     -1.76351935	      4.11396888	     16.01731943	      0.27955496	     14.92060421	     -9.51044885	     -7.49999987	     -6.34416125	      4.37935071	     -1.11372907	     -9.67723487	     -9.74262004	     -4.16586648	     35.38906940	     75.08620840	     -1.19457334	     -9.85862433	     18.09830346	     28.17767275	     79.42870380
      3.33333330	    -20.28369541	      0.65596729	     -2.44648757	     -0.26965052	      1.16524148	     -0.05350384	     22.86020508	      0.46458025	     -1.40896137	     17.27754282	      0.30155001	      8.61619412	    -21.97429361	     -7.49999987	     24.73064967	     -1.50836515	      4.01225178	     17.83929717	      0.31135447	     15.67846634	     -9.70523759	     -7.49999987	     -6.09613298	      4.28652896	     -0.71734621	    -10.22731503	     -9.85040062	     -4.17535121	     36.07644270	     75.54301733	     -1.28330343	     -9.57127763	     18.00651875	     28.40219704	     79.87376808
